HIERARCHY
ROOT Hips
{
 OFFSET 0.000000 0.000000 0.000000
 CHANNELS 6 Xposition Yposition Zposition Yrotation Xrotation Zrotation
 JOINT Chest
 {
  OFFSET 0.000000 9.585900 0.002600
  CHANNELS 3 Yrotation Xrotation Zrotation
  JOINT Chest2
  {
   OFFSET 0.000000 9.601200 -0.005300
   CHANNELS 3 Yrotation Xrotation Zrotation
   JOINT Chest3
   {
    OFFSET 0.000000 9.561800 0.000000
    CHANNELS 3 Yrotation Xrotation Zrotation
    JOINT Chest4
    {
     OFFSET 0.000000 9.552100 0.000000
     CHANNELS 3 Yrotation Xrotation Zrotation
     JOINT Neck
     {
      OFFSET 0.000000 14.453000 0.000000
      CHANNELS 3 Yrotation Xrotation Zrotation
      JOINT Head
      {
       OFFSET 0.000000 8.936500 -0.011300
       CHANNELS 3 Yrotation Xrotation Zrotation
       End Site
       {
        OFFSET 0.000000 17.073600 -0.006000
       }
      }
     }
     JOINT RightCollar
     {
      OFFSET -2.921100 9.558500 0.000000
      CHANNELS 3 Yrotation Xrotation Zrotation
      JOINT RightShoulder
      {
       OFFSET -13.519700 0.000000 0.000000
       CHANNELS 3 Yrotation Xrotation Zrotation
       JOINT RightElbow
       {
        OFFSET 0.000000 -29.696600 0.000000
        CHANNELS 3 Yrotation Xrotation Zrotation
        JOINT RightWrist
        {
         OFFSET 0.000000 -24.004700 0.000000
         CHANNELS 3 Yrotation Xrotation Zrotation
         End Site
         {
          OFFSET 0.000000 -17.728500 0.000000
         }
        }
       }
      }
     }
     JOINT LeftCollar
     {
      OFFSET 2.921100 9.558500 0.000000
      CHANNELS 3 Yrotation Xrotation Zrotation
      JOINT LeftShoulder
      {
       OFFSET 13.519700 0.000000 0.000000
       CHANNELS 3 Yrotation Xrotation Zrotation
       JOINT LeftElbow
       {
        OFFSET 0.000000 -29.696600 0.000000
        CHANNELS 3 Yrotation Xrotation Zrotation
        JOINT LeftWrist
        {
         OFFSET 0.000000 -24.004700 0.000000
         CHANNELS 3 Yrotation Xrotation Zrotation
         End Site
         {
          OFFSET 0.000000 -17.728500 0.000000
         }
        }
       }
      }
     }
    }
   }
  }
 }
 JOINT RightHip
 {
  OFFSET -7.771700 -0.012900 -0.001300
  CHANNELS 3 Yrotation Xrotation Zrotation
  JOINT RightKnee
  {
   OFFSET 0.000000 -40.869800 0.001200
   CHANNELS 3 Yrotation Xrotation Zrotation
   JOINT RightAnkle
   {
    OFFSET 0.000000 -39.717900 0.002100
    CHANNELS 3 Yrotation Xrotation Zrotation
    JOINT RightToe
    {
     OFFSET 0.000000 -4.965400 11.033500
     CHANNELS 3 Yrotation Xrotation Zrotation
     End Site
     {
      OFFSET 0.000000 -1.423100 5.872300
     }
    }
   }
  }
 }
 JOINT LeftHip
 {
  OFFSET 7.771700 -0.012900 -0.001300
  CHANNELS 3 Yrotation Xrotation Zrotation
  JOINT LeftKnee
  {
   OFFSET 0.000000 -40.869800 0.001200
   CHANNELS 3 Yrotation Xrotation Zrotation
   JOINT LeftAnkle
   {
    OFFSET 0.000000 -39.717900 0.002100
    CHANNELS 3 Yrotation Xrotation Zrotation
    JOINT LeftToe
    {
     OFFSET 0.000000 -4.965400 11.033500
     CHANNELS 3 Yrotation Xrotation Zrotation
     End Site
     {
      OFFSET 0.000000 -1.423100 5.872300
     }
    }
   }
  }
 }
}
MOTION
Frames: 9
Frame Time: 0.008333
0.000000 85.388000 0.000000 0.000000 -5.767877 0.000000 0.000000 11.653817 0.000000 0.000000 -5.885947 0.000000 0.000000 -0.000000 0.000000 0.000000 -0.000000 0.000000 0.000000 12.528835 0.000000 0.000000 0.711642 0.000000 0.000000 -0.000000 0.000000 0.000000 0.000000 -90.000000 0.000000 -2.309062 0.000000 0.000000 2.309062 0.000000 0.000000 -0.000000 0.000000 0.000000 -0.000000 90.000000 0.000000 -2.309062 0.000000 0.000000 2.309062 0.000000 0.000000 8.520406 0.000000 0.000000 1.905762 0.000000 -0.000000 -4.658285 0.000000 0.000000 -0.000000 0.000000 0.000000 8.520406 0.000000 0.000000 1.905762 0.000000 -0.000000 -4.658285 0.000000 0.000000 -0.000000 0.000000
-21.450821 43.747807 25.887588 175.999218 -22.730384 -0.295473 -0.528956 18.224674 3.219558 -0.114565 2.078872 0.443491 -0.187491 3.496228 0.734946 -0.482651 15.847780 3.322875 -0.859058 15.575235 -4.445592 0.106623 -9.302157 -4.512217 8.946137 2.562186 -8.322540 -5.560938 -4.813978 -3.470647 -161.550241 -86.095727 -179.422468 -3.098403 3.978775 -35.185763 -9.357421 -1.891514 -4.189955 9.851279 -2.180054 3.536221 128.252548 -79.546069 -156.127750 16.934258 12.439247 39.680328 -0.185334 -68.695687 8.977209 -155.047673 66.772918 -153.017136 -9.187434 -24.077426 7.274408 0.295182 -0.942992 0.096444 4.328607 -52.361173 -0.736303 177.750740 57.428942 176.947998 -2.224825 -42.256549 2.648566 0.021938 0.120079 0.014457
-21.449838 43.746344 25.888849 175.992584 -22.744960 -0.292212 -0.521708 18.211018 3.217890 -0.116528 2.099518 0.444177 -0.181724 3.438052 0.727920 -0.486841 15.894039 3.326892 -0.855738 15.563321 -4.450517 0.104107 -9.278567 -4.509765 8.938742 2.504979 -8.361613 -5.556855 -4.759784 -3.443211 -161.597707 -86.075809 -179.360294 -3.041919 3.929080 -35.124801 -9.381541 -1.949404 -4.164016 9.883540 -2.130652 3.541131 128.138141 -79.503135 -156.053002 16.931912 12.440261 39.655500 -0.193739 -68.679568 8.981109 -155.062433 66.779871 -153.034009 -9.168178 -24.083094 7.269631 0.282307 -0.940069 0.089795 4.338476 -52.348224 -0.731001 177.753894 57.427157 176.951940 -2.229441 -42.258379 2.651714 0.022972 0.118654 0.014572
-21.447566 43.744982 25.889652 175.989957 -22.766986 -0.298561 -0.516035 18.204599 3.222984 -0.116845 2.097431 0.443435 -0.181966 3.435852 0.726027 -0.489134 15.906867 3.328122 -0.851969 15.556695 -4.453840 0.109012 -9.264342 -4.510909 8.936238 2.480315 -8.378571 -5.551519 -4.723110 -3.427607 -162.488041 -85.942649 -178.463067 -3.045504 3.984218 -35.071455 -9.392088 -1.969526 -4.149723 9.886577 -2.145561 3.548966 127.882602 -79.511464 -155.796068 16.911814 12.418530 39.597222 -0.215298 -68.657442 9.002722 -155.056592 66.785149 -153.025234 -9.164336 -24.072038 7.262049 0.298967 -0.950199 0.098407 4.330806 -52.328748 -0.711526 177.744118 57.423230 176.947351 -2.236664 -42.262989 2.648951 0.022015 0.118678 0.014480
-21.442247 43.741392 25.895762 175.965627 -22.759221 -0.318020 -0.479940 18.169406 3.251797 -0.117925 2.065858 0.437854 -0.185886 3.462716 0.728738 -0.489005 15.901252 3.326121 -0.851008 15.574088 -4.452146 0.124387 -9.272532 -4.517611 8.934387 2.505235 -8.370915 -5.567319 -4.749794 -3.433538 -162.529051 -85.899467 -178.395975 -3.044145 4.012573 -35.041225 -9.404245 -1.970252 -4.134439 9.887448 -2.132825 3.547303 128.051721 -79.455035 -156.025477 16.916192 12.445010 39.629365 -0.286252 -68.668674 9.085059 -154.949445 66.772007 -152.920897 -9.077586 -24.099077 7.241268 0.255983 -0.921084 0.094072 4.320439 -52.347972 -0.656326 177.744246 57.412986 176.955001 -2.242370 -42.264614 2.645781 0.021109 0.116678 0.014553
-21.444009 43.739144 25.897901 175.969152 -22.775644 -0.305589 -0.490923 18.157025 3.231100 -0.115963 2.080104 0.440834 -0.185291 3.454068 0.727166 -0.497956 15.852668 3.306930 -0.838858 15.623173 -4.438072 0.128509 -9.260035 -4.515547 8.947280 2.528220 -8.363865 -5.590129 -4.776389 -3.444602 -161.822745 -85.939436 -179.077272 -3.041141 4.016736 -35.030812 -9.405132 -1.914860 -4.119439 9.887132 -2.126668 3.546492 128.202884 -79.427246 -156.208259 16.899030 12.448010 39.619042 -0.273405 -68.654053 9.048228 -154.957521 66.773085 -152.935768 -9.044313 -24.092459 7.233583 0.232905 -0.929183 0.090962 4.338945 -52.334911 -0.666977 177.727372 57.411923 176.937993 -2.261722 -42.262108 2.648585 0.017866 0.116162 0.019823
-21.444488 43.735813 25.902637 175.962613 -22.777073 -0.298866 -0.484045 18.131752 3.226139 -0.117804 2.092645 0.441055 -0.186213 3.460502 0.727337 -0.495927 15.825672 3.300054 -0.836416 15.630452 -4.436663 0.128153 -9.240947 -4.511422 8.944999 2.466903 -8.397211 -5.587610 -4.704759 -3.419020 -161.422379 -85.830546 -179.420720 -3.024873 4.079958 -35.038966 -9.418413 -1.926944 -4.101810 9.892655 -2.091735 3.542930 128.198556 -79.425372 -156.206079 16.853551 12.431834 39.571771 -0.281059 -68.654505 9.044004 -154.903754 66.769212 -152.891695 -8.996250 -24.086648 7.223975 0.205946 -0.919667 0.088305 4.352029 -52.340181 -0.669950 177.730369 57.409730 176.944688 -2.257576 -42.262255 2.642558 0.018234 0.118852 0.018798
-21.446073 43.733991 25.903544 175.967752 -22.803211 -0.288683 -0.490093 18.129479 3.210695 -0.112347 2.068442 0.437552 -0.192089 3.481507 0.729767 -0.491235 15.822053 3.296403 -0.837012 15.643794 -4.432836 0.124346 -9.223176 -4.505436 8.937323 2.476101 -8.392399 -5.587644 -4.688760 -3.414806 -160.900358 -85.742563 -179.903482 -3.046233 4.061643 -35.005669 -9.437646 -1.940155 -4.084624 9.892499 -2.075230 3.547488 128.281567 -79.410554 -156.297880 16.841875 12.449201 39.555661 -0.300814 -68.628421 9.029131 -154.902544 66.764853 -152.895529 -8.968244 -24.085412 7.208470 0.200601 -0.923147 0.084706 4.362810 -52.316466 -0.684539 177.721124 57.408870 176.942533 -2.258106 -42.262625 2.635942 0.017666 0.119063 0.016967
-21.445336 43.733270 25.901902 175.971707 -22.847082 -0.290432 -0.488800 18.143692 3.208481 -0.108698 2.059317 0.435616 -0.185155 3.455260 0.724843 -0.495529 15.850713 3.299654 -0.838355 15.658428 -4.427959 0.119765 -9.205582 -4.498937 8.934594 2.454205 -8.401346 -5.597942 -4.666035 -3.413083 -159.974526 -85.693602 179.212065 -3.042372 4.087274 -35.006553 -9.457393 -1.933765 -4.074601 9.882854 -2.077989 3.554571 128.588874 -79.373825 -156.641625 16.878308 12.494790 39.591823 -0.316331 -68.583458 9.035269 -154.910406 66.764513 -152.903391 -8.975626 -24.080861 7.224666 0.211259 -0.928355 0.068117 4.362641 -52.272409 -0.680853 177.696173 57.405075 176.925189 -2.218574 -42.268817 2.597809 0.021542 0.114851 0.015156
